<svg width="81" height="20" viewBox="0 0 81 20" fill="none" xmlns="http://www.w3.org/2000/svg">
<path id="ATLAS" d="M7.392 0.399999H10.472L17.556 20H14.252L12.572 15.352H5.264L3.584 20H0.28L7.392 0.399999ZM11.816 12.636L8.932 4.348H8.876L6.048 12.636H11.816ZM21.7525 3.172H15.8725V0.399999H30.8805V3.172H25.0005V20H21.7525V3.172ZM33.4053 0.399999H36.6533V17.228H46.5093V20H33.4053V0.399999ZM54.3139 0.399999H57.3939L64.4779 20H61.1739L59.4939 15.352H52.1859L50.5059 20H47.2019L54.3139 0.399999ZM58.7379 12.636L55.8539 4.348H55.7979L52.9699 12.636H58.7379ZM65.8798 17.116V14.652H69.0718V16.136L70.1358 17.2H76.2398L77.3598 16.08V12.468L76.2678 11.376H68.8198L65.9358 8.52V3.284L68.8198 0.399999H77.4438L80.3278 3.284V5.776H77.1358V4.264L76.0438 3.2H70.2198L69.1278 4.264V7.512L70.2198 8.576H77.6678L80.5518 11.46V17.06L77.6118 20H68.7638L65.8798 17.116Z" fill="#0165E1"/>
</svg>
